<mxfile host="app.diagrams.net" agent="Mozilla/5.0 (Windows NT 10.0; Win64; x64) AppleWebKit/537.36 (KHTML, like Gecko) Chrome/137.0.0.0 Safari/537.36" version="27.1.6">
  <diagram name="Page-1" id="oa-1MF02uD3foyhWks0Q">
    <mxGraphModel grid="1" page="1" gridSize="10" guides="1" tooltips="1" connect="1" arrows="1" fold="1" pageScale="1" pageWidth="850" pageHeight="1100" math="0" shadow="0">
      <root>
        <mxCell id="0" />
        <mxCell id="1" parent="0" />
        <mxCell id="Mjgt-5KfN2ADaybtvZvO-1" value="AWS Cloud" style="points=[[0,0],[0.25,0],[0.5,0],[0.75,0],[1,0],[1,0.25],[1,0.5],[1,0.75],[1,1],[0.75,1],[0.5,1],[0.25,1],[0,1],[0,0.75],[0,0.5],[0,0.25]];outlineConnect=0;gradientColor=none;html=1;whiteSpace=wrap;fontSize=12;fontStyle=0;container=1;pointerEvents=0;collapsible=0;recursiveResize=0;shape=mxgraph.aws4.group;grIcon=mxgraph.aws4.group_aws_cloud_alt;strokeColor=#232F3E;fillColor=none;verticalAlign=top;align=left;spacingLeft=30;fontColor=#232F3E;dashed=0;horizontal=1;" vertex="1" parent="1">
          <mxGeometry x="90" y="20" width="700" height="420" as="geometry" />
        </mxCell>
        <mxCell id="Mjgt-5KfN2ADaybtvZvO-2" value="euro-north-1" style="points=[[0,0],[0.25,0],[0.5,0],[0.75,0],[1,0],[1,0.25],[1,0.5],[1,0.75],[1,1],[0.75,1],[0.5,1],[0.25,1],[0,1],[0,0.75],[0,0.5],[0,0.25]];outlineConnect=0;gradientColor=none;html=1;whiteSpace=wrap;fontSize=12;fontStyle=0;container=1;pointerEvents=0;collapsible=0;recursiveResize=0;shape=mxgraph.aws4.group;grIcon=mxgraph.aws4.group_region;strokeColor=default;fillColor=none;verticalAlign=top;align=left;spacingLeft=30;fontColor=#147EBA;dashed=1;" vertex="1" parent="Mjgt-5KfN2ADaybtvZvO-1">
          <mxGeometry x="30" y="20" width="660" height="390" as="geometry" />
        </mxCell>
        <mxCell id="Mjgt-5KfN2ADaybtvZvO-3" value="VPC" style="points=[[0,0],[0.25,0],[0.5,0],[0.75,0],[1,0],[1,0.25],[1,0.5],[1,0.75],[1,1],[0.75,1],[0.5,1],[0.25,1],[0,1],[0,0.75],[0,0.5],[0,0.25]];outlineConnect=0;gradientColor=none;html=1;whiteSpace=wrap;fontSize=12;fontStyle=0;container=1;pointerEvents=0;collapsible=0;recursiveResize=0;shape=mxgraph.aws4.group;grIcon=mxgraph.aws4.group_vpc2;strokeColor=#8C4FFF;fillColor=none;verticalAlign=top;align=left;spacingLeft=30;fontColor=#AAB7B8;dashed=0;" vertex="1" parent="Mjgt-5KfN2ADaybtvZvO-2">
          <mxGeometry x="40" y="30" width="590" height="340" as="geometry" />
        </mxCell>
        <mxCell id="Mjgt-5KfN2ADaybtvZvO-6" value="Public subnet b" style="points=[[0,0],[0.25,0],[0.5,0],[0.75,0],[1,0],[1,0.25],[1,0.5],[1,0.75],[1,1],[0.75,1],[0.5,1],[0.25,1],[0,1],[0,0.75],[0,0.5],[0,0.25]];outlineConnect=0;gradientColor=none;html=1;whiteSpace=wrap;fontSize=12;fontStyle=0;container=1;pointerEvents=0;collapsible=0;recursiveResize=0;shape=mxgraph.aws4.group;grIcon=mxgraph.aws4.group_security_group;grStroke=0;strokeColor=#7AA116;fillColor=#F2F6E8;verticalAlign=top;align=left;spacingLeft=30;fontColor=#248814;dashed=0;" vertex="1" parent="Mjgt-5KfN2ADaybtvZvO-3">
          <mxGeometry x="440" y="45" width="120" height="170" as="geometry" />
        </mxCell>
        <mxCell id="Mjgt-5KfN2ADaybtvZvO-11" value="AZ B" style="fillColor=none;strokeColor=#147EBA;dashed=1;verticalAlign=top;fontStyle=0;fontColor=#147EBA;whiteSpace=wrap;html=1;" vertex="1" parent="Mjgt-5KfN2ADaybtvZvO-3">
          <mxGeometry x="280" y="20" width="300" height="230" as="geometry" />
        </mxCell>
        <mxCell id="Mjgt-5KfN2ADaybtvZvO-7" value="Private subnet" style="points=[[0,0],[0.25,0],[0.5,0],[0.75,0],[1,0],[1,0.25],[1,0.5],[1,0.75],[1,1],[0.75,1],[0.5,1],[0.25,1],[0,1],[0,0.75],[0,0.5],[0,0.25]];outlineConnect=0;gradientColor=none;html=1;whiteSpace=wrap;fontSize=12;fontStyle=0;container=1;pointerEvents=0;collapsible=0;recursiveResize=0;shape=mxgraph.aws4.group;grIcon=mxgraph.aws4.group_security_group;grStroke=0;strokeColor=#00A4A6;fillColor=#E6F6F7;verticalAlign=top;align=left;spacingLeft=30;fontColor=#147EBA;dashed=0;" vertex="1" parent="Mjgt-5KfN2ADaybtvZvO-3">
          <mxGeometry x="300" y="45" width="120" height="165" as="geometry" />
        </mxCell>
        <mxCell id="Mjgt-5KfN2ADaybtvZvO-29" value="" style="sketch=0;points=[[0,0,0],[0.25,0,0],[0.5,0,0],[0.75,0,0],[1,0,0],[0,1,0],[0.25,1,0],[0.5,1,0],[0.75,1,0],[1,1,0],[0,0.25,0],[0,0.5,0],[0,0.75,0],[1,0.25,0],[1,0.5,0],[1,0.75,0]];outlineConnect=0;fontColor=#232F3E;fillColor=#ED7100;strokeColor=#ffffff;dashed=0;verticalLabelPosition=bottom;verticalAlign=top;align=center;html=1;fontSize=12;fontStyle=0;aspect=fixed;shape=mxgraph.aws4.resourceIcon;resIcon=mxgraph.aws4.ec2;" vertex="1" parent="Mjgt-5KfN2ADaybtvZvO-7">
          <mxGeometry x="33.5" y="32.2" width="53" height="53" as="geometry" />
        </mxCell>
        <mxCell id="Mjgt-5KfN2ADaybtvZvO-15" value="AZ A" style="fillColor=none;strokeColor=#147EBA;dashed=1;verticalAlign=top;fontStyle=0;fontColor=#147EBA;whiteSpace=wrap;html=1;" vertex="1" parent="Mjgt-5KfN2ADaybtvZvO-3">
          <mxGeometry x="30" y="30" width="210" height="220" as="geometry" />
        </mxCell>
        <mxCell id="Mjgt-5KfN2ADaybtvZvO-16" value="Public subnet a" style="points=[[0,0],[0.25,0],[0.5,0],[0.75,0],[1,0],[1,0.25],[1,0.5],[1,0.75],[1,1],[0.75,1],[0.5,1],[0.25,1],[0,1],[0,0.75],[0,0.5],[0,0.25]];outlineConnect=0;gradientColor=none;html=1;whiteSpace=wrap;fontSize=12;fontStyle=0;container=1;pointerEvents=0;collapsible=0;recursiveResize=0;shape=mxgraph.aws4.group;grIcon=mxgraph.aws4.group_security_group;grStroke=0;strokeColor=#7AA116;fillColor=#F2F6E8;verticalAlign=top;align=left;spacingLeft=30;fontColor=#248814;dashed=0;" vertex="1" parent="Mjgt-5KfN2ADaybtvZvO-3">
          <mxGeometry x="70" y="65" width="130" height="130.45" as="geometry" />
        </mxCell>
        <mxCell id="Mjgt-5KfN2ADaybtvZvO-20" value="" style="edgeStyle=elbowEdgeStyle;elbow=vertical;endArrow=classic;html=1;curved=0;rounded=0;endSize=8;startSize=8;entryX=0.733;entryY=0.696;entryDx=0;entryDy=0;entryPerimeter=0;" edge="1" parent="Mjgt-5KfN2ADaybtvZvO-16" source="Mjgt-5KfN2ADaybtvZvO-18">
          <mxGeometry width="50" height="50" relative="1" as="geometry">
            <mxPoint x="-130" y="195" as="sourcePoint" />
            <mxPoint x="110" y="85" as="targetPoint" />
          </mxGeometry>
        </mxCell>
        <mxCell id="Mjgt-5KfN2ADaybtvZvO-22" value="" style="points=[];aspect=fixed;html=1;align=center;shadow=0;dashed=0;fillColor=#FF6A00;strokeColor=none;shape=mxgraph.alibaba_cloud.bastionhost;" vertex="1" parent="Mjgt-5KfN2ADaybtvZvO-16">
          <mxGeometry x="39.80000000000001" y="42.55000000000001" width="50.4" height="39.900000000000006" as="geometry" />
        </mxCell>
        <mxCell id="Mjgt-5KfN2ADaybtvZvO-40" value="" style="edgeStyle=elbowEdgeStyle;elbow=vertical;endArrow=classic;html=1;curved=0;rounded=0;endSize=8;startSize=8;entryX=0;entryY=0.5;entryDx=0;entryDy=0;entryPerimeter=0;" edge="1" parent="Mjgt-5KfN2ADaybtvZvO-16">
          <mxGeometry width="50" height="50" relative="1" as="geometry">
            <mxPoint x="82" y="82.44999999999999" as="sourcePoint" />
            <mxPoint x="263.5" y="36.15000000000005" as="targetPoint" />
          </mxGeometry>
        </mxCell>
        <mxCell id="Mjgt-5KfN2ADaybtvZvO-18" value="" style="sketch=0;outlineConnect=0;fontColor=#232F3E;gradientColor=none;fillColor=#8C4FFF;strokeColor=none;dashed=0;verticalLabelPosition=bottom;verticalAlign=top;align=center;html=1;fontSize=12;fontStyle=0;aspect=fixed;pointerEvents=1;shape=mxgraph.aws4.route_table;" vertex="1" parent="Mjgt-5KfN2ADaybtvZvO-3">
          <mxGeometry x="240" y="290" width="24.63" height="24" as="geometry" />
        </mxCell>
        <mxCell id="Mjgt-5KfN2ADaybtvZvO-17" value="" style="sketch=0;outlineConnect=0;fontColor=#232F3E;gradientColor=none;fillColor=#8C4FFF;strokeColor=none;verticalLabelPosition=bottom;verticalAlign=top;align=center;html=1;fontSize=12;fontStyle=0;aspect=fixed;pointerEvents=1;shape=mxgraph.aws4.internet_gateway;" vertex="1" parent="Mjgt-5KfN2ADaybtvZvO-3">
          <mxGeometry x="237" y="-13" width="33" height="33" as="geometry" />
        </mxCell>
        <mxCell id="Mjgt-5KfN2ADaybtvZvO-19" value="" style="edgeStyle=elbowEdgeStyle;elbow=vertical;endArrow=classic;html=1;curved=0;rounded=0;endSize=8;startSize=8;entryX=0.733;entryY=0.696;entryDx=0;entryDy=0;entryPerimeter=0;" edge="1" parent="Mjgt-5KfN2ADaybtvZvO-3" target="Mjgt-5KfN2ADaybtvZvO-11">
          <mxGeometry width="50" height="50" relative="1" as="geometry">
            <mxPoint x="250" y="290" as="sourcePoint" />
            <mxPoint x="300" y="240" as="targetPoint" />
          </mxGeometry>
        </mxCell>
        <mxCell id="Mjgt-5KfN2ADaybtvZvO-28" value="" style="points=[];aspect=fixed;html=1;align=center;shadow=0;dashed=0;fillColor=#FF6A00;strokeColor=none;shape=mxgraph.alibaba_cloud.alb_application_load_balancer_01;" vertex="1" parent="Mjgt-5KfN2ADaybtvZvO-3">
          <mxGeometry x="460" y="130" width="35.61" height="30.2" as="geometry" />
        </mxCell>
        <mxCell id="Mjgt-5KfN2ADaybtvZvO-30" value="" style="rounded=1;whiteSpace=wrap;html=1;strokeColor=light-dark(#FF8100,#FF8000);fillColor=light-dark(#FF8100,#FF8000);" vertex="1" parent="Mjgt-5KfN2ADaybtvZvO-3">
          <mxGeometry x="315" y="170" width="90" height="30" as="geometry" />
        </mxCell>
        <mxCell id="Mjgt-5KfN2ADaybtvZvO-31" value="target group" style="text;strokeColor=none;align=center;fillColor=none;html=1;verticalAlign=middle;whiteSpace=wrap;rounded=0;" vertex="1" parent="Mjgt-5KfN2ADaybtvZvO-3">
          <mxGeometry x="315" y="170" width="100" height="30" as="geometry" />
        </mxCell>
        <mxCell id="Mjgt-5KfN2ADaybtvZvO-36" value="" style="edgeStyle=elbowEdgeStyle;elbow=vertical;endArrow=classic;html=1;curved=0;rounded=0;endSize=8;startSize=8;" edge="1" parent="Mjgt-5KfN2ADaybtvZvO-3">
          <mxGeometry width="50" height="50" relative="1" as="geometry">
            <mxPoint x="480" y="150" as="sourcePoint" />
            <mxPoint x="660" y="130" as="targetPoint" />
            <Array as="points">
              <mxPoint x="500" y="130" />
              <mxPoint x="490" y="130" />
              <mxPoint x="610" y="95" />
            </Array>
          </mxGeometry>
        </mxCell>
        <mxCell id="Mjgt-5KfN2ADaybtvZvO-34" value="" style="edgeStyle=elbowEdgeStyle;elbow=vertical;endArrow=classic;html=1;curved=0;rounded=0;endSize=8;startSize=8;entryX=0.85;entryY=0.333;entryDx=0;entryDy=0;entryPerimeter=0;exitX=0.543;exitY=0.784;exitDx=0;exitDy=0;exitPerimeter=0;" edge="1" parent="Mjgt-5KfN2ADaybtvZvO-3" source="Mjgt-5KfN2ADaybtvZvO-28" target="Mjgt-5KfN2ADaybtvZvO-31">
          <mxGeometry width="50" height="50" relative="1" as="geometry">
            <mxPoint x="430" y="140" as="sourcePoint" />
            <mxPoint x="680" y="30" as="targetPoint" />
            <Array as="points">
              <mxPoint x="450" y="120" />
              <mxPoint x="440" y="120" />
              <mxPoint x="560" y="85" />
            </Array>
          </mxGeometry>
        </mxCell>
        <mxCell id="Mjgt-5KfN2ADaybtvZvO-21" value="" style="edgeStyle=elbowEdgeStyle;elbow=vertical;endArrow=classic;html=1;curved=0;rounded=0;endSize=8;startSize=8;" edge="1" parent="Mjgt-5KfN2ADaybtvZvO-2" target="Mjgt-5KfN2ADaybtvZvO-18">
          <mxGeometry width="50" height="50" relative="1" as="geometry">
            <mxPoint x="280" y="40" as="sourcePoint" />
            <mxPoint x="330" y="-10" as="targetPoint" />
            <Array as="points">
              <mxPoint x="340" y="40" />
            </Array>
          </mxGeometry>
        </mxCell>
        <mxCell id="Mjgt-5KfN2ADaybtvZvO-38" value="" style="outlineConnect=0;dashed=0;verticalLabelPosition=bottom;verticalAlign=top;align=center;html=1;shape=mxgraph.aws3.internet_2;fillColor=#D2D3D3;gradientColor=none;" vertex="1" parent="1">
          <mxGeometry x="820" y="170" width="79.5" height="54" as="geometry" />
        </mxCell>
      </root>
    </mxGraphModel>
  </diagram>
</mxfile>
